<svg xmlns:dc="http://purl.org/dc/elements/1.1/" xmlns:cc="http://creativecommons.org/ns#" xmlns:rdf="http://www.w3.org/1999/02/22-rdf-syntax-ns#" xmlns:svg="http://www.w3.org/2000/svg" xmlns="http://www.w3.org/2000/svg" xmlns:sodipodi="http://sodipodi.sourceforge.net/DTD/sodipodi-0.dtd" xmlns:inkscape="http://www.inkscape.org/namespaces/inkscape" version="1.1" x="0px" y="0px" viewBox="0 0 100 125"><g transform="translate(0,-952.36218)"><path d="m 78.345352,1000.4557 -14.00046,-17.00003 c -1.15828,-1.29657 -3.01562,-1.42036 -4.23477,-0.42217 -1.21914,0.99819 -1.42002,3.01569 -0.42164,4.23467 l 9.96908,12.09375 -45.65748,0 c -1.6569,0 -3.0001,1.34318 -3.0001,2.99998 0,1.6569 1.3432,3 3.0001,3 l 45.65748,0 -9.96908,12.0938 c -0.99838,1.2189 -0.7737,3.2081 0.42164,4.2346 1.23256,1.0586 3.23669,0.7971 4.23477,-0.4221 l 14.00046,-17 c 0.91138,-1.2815 0.83353,-2.5733 0,-3.8125 z" style="text-indent:0;text-transform:none;direction:ltr;block-progression:tb;baseline-shift:baseline;color:#000000;enable-background:accumulate;" fill="#000000" fill-opacity="1" stroke="none" marker="none" visibility="visible" display="inline" overflow="visible"/></g><text x="0" y="115" fill="#000000" font-size="5px" font-weight="bold" font-family="'Helvetica Neue', Helvetica, Arial-Unicode, Arial, Sans-serif">Created by Eagle Eye</text><text x="0" y="120" fill="#000000" font-size="5px" font-weight="bold" font-family="'Helvetica Neue', Helvetica, Arial-Unicode, Arial, Sans-serif">from the Noun Project</text></svg>