<svg xmlns="http://www.w3.org/2000/svg" xmlns:xlink="http://www.w3.org/1999/xlink" version="1.1" x="0px" y="0px" viewBox="0 0 100 125" enable-background="new 0 0 100 100" xml:space="preserve"><path d="M27.404,25.221c2.28,0,3.439-1.16,3.439-3.439V8.439C30.844,6.16,29.685,5,27.405,5c-2.28,0-3.44,1.16-3.44,3.439v13.343  C23.965,24.061,25.125,25.221,27.404,25.221z"/><path d="M72.596,25.221c2.28,0,3.439-1.16,3.439-3.439V8.439C76.036,6.16,74.876,5,72.596,5c-2.279,0-3.438,1.16-3.438,3.439v13.343  C69.157,24.061,70.316,25.221,72.596,25.221z"/><path d="M36.744,51.672h8.025c1.646,0,2.293-0.646,2.293-2.293v-5.732c0-1.646-0.647-2.293-2.293-2.293h-8.025  c-1.646,0-2.293,0.646-2.293,2.293v5.732C34.451,51.025,35.098,51.672,36.744,51.672z"/><path d="M55.087,51.672h8.026c1.646,0,2.293-0.646,2.293-2.293v-5.732c0-1.646-0.647-2.293-2.293-2.293h-8.026  c-1.646,0-2.293,0.646-2.293,2.293v5.732C52.794,51.025,53.441,51.672,55.087,51.672z"/><path d="M73.432,51.672h8.025c1.646,0,2.293-0.646,2.293-2.293v-5.732c0-1.646-0.646-2.293-2.293-2.293h-8.025  c-1.646,0-2.293,0.646-2.293,2.293v5.732C71.139,51.025,71.786,51.672,73.432,51.672z"/><path d="M18.4,67.723h8.025c1.646,0,2.293-0.646,2.293-2.293v-5.731c0-1.646-0.647-2.294-2.293-2.294H18.4  c-1.646,0-2.293,0.646-2.293,2.294v5.731C16.106,67.076,16.754,67.723,18.4,67.723z"/><path d="M36.744,67.723h8.025c1.646,0,2.293-0.646,2.293-2.293v-5.731c0-1.646-0.647-2.294-2.293-2.294h-8.025  c-1.646,0-2.293,0.646-2.293,2.294v5.731C34.451,67.076,35.098,67.723,36.744,67.723z"/><path d="M55.087,67.723h8.026c1.646,0,2.293-0.646,2.293-2.293v-5.731c0-1.646-0.647-2.294-2.293-2.294h-8.026  c-1.646,0-2.293,0.646-2.293,2.294v5.731C52.794,67.076,53.441,67.723,55.087,67.723z"/><path d="M73.432,67.723h8.025c1.646,0,2.293-0.646,2.293-2.293v-5.731c0-1.646-0.646-2.294-2.293-2.294h-8.025  c-1.646,0-2.293,0.646-2.293,2.294v5.731C71.139,67.076,71.786,67.723,73.432,67.723z"/><path d="M18.4,83.773h8.025c1.646,0,2.293-0.646,2.293-2.293v-5.731c0-1.646-0.647-2.293-2.293-2.293H18.4  c-1.646,0-2.293,0.646-2.293,2.293v5.731C16.106,83.128,16.754,83.773,18.4,83.773z"/><path d="M36.744,83.773h8.025c1.646,0,2.293-0.646,2.293-2.293v-5.731c0-1.646-0.647-2.293-2.293-2.293h-8.025  c-1.646,0-2.293,0.646-2.293,2.293v5.731C34.451,83.128,35.098,83.773,36.744,83.773z"/><path d="M55.087,83.773h8.026c1.646,0,2.293-0.646,2.293-2.293v-5.731c0-1.646-0.647-2.293-2.293-2.293h-8.026  c-1.646,0-2.293,0.646-2.293,2.293v5.731C52.794,83.128,53.441,83.773,55.087,83.773z"/><path d="M81.6,73.456h-8.024c-1.646,0-2.293,0.646-2.293,2.293v5.731c0,1.646,0.647,2.293,2.293,2.293H81.6  c1.646,0,2.293-0.646,2.293-2.293v-5.731C83.895,74.104,83.246,73.456,81.6,73.456z"/><path d="M84.682,12.262h-6.926v4.655c1.58,1.417,2.58,3.467,2.58,5.757c0,4.274-3.465,7.739-7.738,7.739  c-4.274,0-7.74-3.465-7.74-7.739c0-2.29,1-4.34,2.58-5.757v-4.655H32.564v4.655c1.58,1.417,2.58,3.467,2.58,5.757  c0,4.274-3.465,7.739-7.739,7.739c-4.275,0-7.739-3.465-7.739-7.739c0-2.29,1-4.34,2.58-5.757v-4.655h-6.927  C7.91,12.262,5,15.171,5,22.58v8.79v4.586v48.726C5,92.09,7.91,95,15.318,95h69.364C92.09,95,95,92.09,95,84.682V35.956V31.37v-8.79  C95,15.171,92.09,12.262,84.682,12.262z M89.268,85.828c0,2.47-0.97,3.439-3.438,3.439H14.172c-2.469,0-3.439-0.971-3.439-3.439  V35.383h78.535V85.828z"/><text x="0" y="115" fill="#000000" font-size="5px" font-weight="bold" font-family="'Helvetica Neue', Helvetica, Arial-Unicode, Arial, Sans-serif">Created by David</text><text x="0" y="120" fill="#000000" font-size="5px" font-weight="bold" font-family="'Helvetica Neue', Helvetica, Arial-Unicode, Arial, Sans-serif">from the Noun Project</text></svg>